# xmcd
#
# Track frame offsets:
#	150
#	17362
#	41275
#	51219
#	58767
#	69131
#
# Disc length: 1049 seconds
#
# Revision: 1
# Processed by: cddbd v1.5.2PL0 Copyright (c) Steve Scherf et al.
# Submitted via: audiograbber 1.83.01
#
DISCID=40041706
DTITLE=Hermann Lammers Meyer - Don´t Forget To Remember Hermann Lammers Meyer
DYEAR=2003
DGENRE=
TTITLE0=Don´t Forget To Remember
TTITLE1=Honky Tonk Trail
TTITLE2=You Make A Left And Then A Right
TTITLE3=Robbing Hearts
TTITLE4=Could I Have This Dance
TTITLE5=Der Säger, Half My Heart
EXTD=
EXTT0=
EXTT1=
EXTT2=
EXTT3=
EXTT4=
EXTT5=
PLAYORDER=
